<svg width="199" height="220" viewBox="0 0 199 220" fill="none" xmlns="http://www.w3.org/2000/svg">
<ellipse cx="10.8434" cy="51.9714" rx="10.8434" ry="10.1836" fill="black"/>
<ellipse cx="10.8434" cy="51.9714" rx="10.8434" ry="10.1836" fill="black"/>
<ellipse cx="117.104" cy="10.1836" rx="10.8434" ry="10.1836" fill="black"/>
<ellipse cx="117.104" cy="10.1836" rx="10.8434" ry="10.1836" fill="black"/>
<g filter="url(#filter0_f_76_496)">
<path d="M197 123.758C197 171.794 161.47 216.103 112.528 216.103C63.5862 216.103 15.6191 183.068 15.6191 135.033C15.6191 86.9969 55.8128 58.2572 104.755 58.2572C153.697 58.2572 197 75.7222 197 123.758Z" fill="#C9C1FE"/>
</g>
<path d="M198 122.884C198 172.974 160.917 219 110.049 219C84.4932 219 59.2013 210.383 40.3159 195.529C21.4399 180.681 9 159.638 9 134.742C9 109.79 19.4412 89.8869 36.2365 76.2021C53.0506 62.5019 76.2809 55 101.863 55C127.539 55 151.615 59.5796 169.236 70.3515C186.796 81.0853 198 97.9911 198 122.884Z" stroke="black" stroke-width="2"/>
<rect x="1.28645" y="0.549717" width="118.763" height="77.4764" rx="25" transform="matrix(0.924038 -0.382301 0.362414 0.932017 40.1705 122.188)" fill="white" stroke="black" stroke-width="2"/>
<path d="M84.77 156.773C112.1 168.705 133.488 167.413 148.049 132.527" stroke="black" stroke-width="3" stroke-linecap="round"/>
<path d="M128.075 116.202C130.291 120.717 129.126 125.382 126.178 126.906C123.229 128.431 118.883 126.616 116.666 122.101C114.449 117.586 115.614 112.921 118.563 111.397C121.511 109.872 125.858 111.687 128.075 116.202Z" fill="white" stroke="black" stroke-width="2"/>
<ellipse cx="121.946" cy="119.231" rx="3.45018" ry="4.21742" transform="rotate(-6.83263 121.946 119.231)" fill="black"/>
<ellipse cx="121.946" cy="119.231" rx="3.45018" ry="4.21742" transform="rotate(-6.83263 121.946 119.231)" fill="black"/>
<ellipse cx="121.946" cy="119.231" rx="3.45018" ry="4.21742" transform="rotate(-6.83263 121.946 119.231)" fill="black"/>
<ellipse cx="121.946" cy="119.231" rx="3.45018" ry="4.21742" transform="rotate(-6.83263 121.946 119.231)" fill="black"/>
<path d="M92.4714 130.681C92.959 133.096 92.6429 135.412 91.783 137.195C90.9236 138.978 89.553 140.181 87.92 140.542C86.2869 140.903 84.5681 140.382 83.0929 139.114C81.6167 137.846 80.4324 135.862 79.9448 133.448C79.4573 131.033 79.7734 128.718 80.6333 126.934C81.4927 125.151 82.8632 123.948 84.4963 123.587C86.1294 123.226 87.8482 123.748 89.3233 125.015C90.7995 126.283 91.9839 128.267 92.4714 130.681Z" fill="white" stroke="black" stroke-width="2"/>
<ellipse cx="85.8114" cy="131.647" rx="3.45018" ry="4.17972" transform="rotate(4.96983 85.8114 131.647)" fill="black"/>
<ellipse cx="85.8114" cy="131.647" rx="3.45018" ry="4.17972" transform="rotate(4.96983 85.8114 131.647)" fill="black"/>
<ellipse cx="85.8114" cy="131.647" rx="3.45018" ry="4.17972" transform="rotate(4.96983 85.8114 131.647)" fill="black"/>
<ellipse cx="85.8114" cy="131.647" rx="3.45018" ry="4.17972" transform="rotate(4.96983 85.8114 131.647)" fill="black"/>
<path d="M111.221 14.1577C111.13 12.4413 112.498 11 114.217 11H119.858C121.556 11 122.915 12.4081 122.856 14.1052L121.137 63.1052C121.08 64.7201 119.754 66 118.138 66H116.795C115.2 66 113.884 64.7511 113.8 63.1577L111.221 14.1577Z" stroke="black" stroke-width="2"/>
<path d="M9.6295 58.7016C8.42938 57.5072 8.45493 55.5568 9.68593 54.3942L12.6505 51.5945C13.8919 50.422 15.8602 50.5207 16.9781 51.8115L49.2813 89.111C50.3476 90.3423 50.2367 92.1994 49.0314 93.295L48.7157 93.5819C47.5328 94.6571 45.7146 94.616 44.5815 93.4883L9.6295 58.7016Z" stroke="black" stroke-width="2"/>
<circle cx="83.5" cy="130.5" r="17" stroke="black" stroke-width="3"/>
<circle cx="122.5" cy="114.5" r="17" stroke="black" stroke-width="3"/>
<line x1="100.329" y1="124.658" x2="106.329" y2="121.658" stroke="black" stroke-width="3"/>
<line x1="136.658" y1="104.329" x2="156.658" y2="64.3292" stroke="black" stroke-width="3"/>
<line x1="8.2262" y1="125.517" x2="67.2262" y2="134.517" stroke="black" stroke-width="3"/>
<ellipse cx="132.628" cy="190.548" rx="5.42019" ry="6" transform="rotate(-28.5285 132.628 190.548)" fill="black"/>
<path d="M149 173L133.5 186L135.5 191L154.5 192.5L149 173Z" fill="black" stroke="black"/>
<path d="M119.341 207.589L132.734 192.428L130.012 187.781L111 189.125L119.341 207.589Z" fill="black" stroke="black"/>
<defs>
<filter id="filter0_f_76_496" x="13.6191" y="56.2572" width="185.381" height="161.846" filterUnits="userSpaceOnUse" color-interpolation-filters="sRGB">
<feFlood flood-opacity="0" result="BackgroundImageFix"/>
<feBlend mode="normal" in="SourceGraphic" in2="BackgroundImageFix" result="shape"/>
<feGaussianBlur stdDeviation="1" result="effect1_foregroundBlur_76_496"/>
</filter>
</defs>
</svg>
