<svg width="296" height="266" viewBox="0 0 296 266" fill="none" xmlns="http://www.w3.org/2000/svg">
<ellipse cx="33.8434" cy="51.9714" rx="10.8434" ry="10.1836" fill="black"/>
<ellipse cx="33.8434" cy="51.9714" rx="10.8434" ry="10.1836" fill="black"/>
<ellipse cx="140.104" cy="10.1836" rx="10.8434" ry="10.1836" fill="black"/>
<ellipse cx="140.104" cy="10.1836" rx="10.8434" ry="10.1836" fill="black"/>
<g filter="url(#filter0_f_76_521)">
<path d="M220 123.758C220 171.794 184.47 216.103 135.528 216.103C86.5862 216.103 38.6191 183.068 38.6191 135.033C38.6191 86.9969 78.8128 58.2572 127.755 58.2572C176.697 58.2572 220 75.7222 220 123.758Z" fill="#C9C1FE"/>
</g>
<path d="M221 122.884C221 172.974 183.917 219 133.049 219C107.493 219 82.2013 210.383 63.3159 195.529C44.4399 180.681 32 159.638 32 134.742C32 109.79 42.4412 89.8869 59.2365 76.2021C76.0506 62.5019 99.2809 55 124.863 55C150.539 55 174.615 59.5796 192.236 70.3515C209.796 81.0853 221 97.9911 221 122.884Z" stroke="black" stroke-width="2"/>
<rect x="1.28645" y="0.549717" width="118.763" height="77.4764" rx="25" transform="matrix(0.924038 -0.382301 0.362414 0.932017 63.1705 122.188)" fill="white" stroke="black" stroke-width="2"/>
<path d="M107.77 156.773C135.1 168.705 156.488 167.413 171.049 132.527" stroke="black" stroke-width="3" stroke-linecap="round"/>
<path d="M151.075 116.202C153.291 120.717 152.126 125.382 149.178 126.906C146.229 128.431 141.883 126.616 139.666 122.101C137.449 117.586 138.614 112.921 141.563 111.397C144.511 109.872 148.858 111.687 151.075 116.202Z" fill="white" stroke="black" stroke-width="2"/>
<ellipse cx="144.946" cy="119.231" rx="3.45018" ry="4.21742" transform="rotate(-6.83263 144.946 119.231)" fill="black"/>
<ellipse cx="144.946" cy="119.231" rx="3.45018" ry="4.21742" transform="rotate(-6.83263 144.946 119.231)" fill="black"/>
<ellipse cx="144.946" cy="119.231" rx="3.45018" ry="4.21742" transform="rotate(-6.83263 144.946 119.231)" fill="black"/>
<ellipse cx="144.946" cy="119.231" rx="3.45018" ry="4.21742" transform="rotate(-6.83263 144.946 119.231)" fill="black"/>
<path d="M115.471 130.681C115.959 133.096 115.643 135.412 114.783 137.195C113.924 138.978 112.553 140.181 110.92 140.542C109.287 140.903 107.568 140.382 106.093 139.114C104.617 137.846 103.432 135.862 102.945 133.448C102.457 131.033 102.773 128.718 103.633 126.934C104.493 125.151 105.863 123.948 107.496 123.587C109.129 123.226 110.848 123.748 112.323 125.015C113.8 126.283 114.984 128.267 115.471 130.681Z" fill="white" stroke="black" stroke-width="2"/>
<ellipse cx="108.811" cy="131.648" rx="3.45018" ry="4.17972" transform="rotate(4.96983 108.811 131.648)" fill="black"/>
<ellipse cx="108.811" cy="131.648" rx="3.45018" ry="4.17972" transform="rotate(4.96983 108.811 131.648)" fill="black"/>
<ellipse cx="108.811" cy="131.648" rx="3.45018" ry="4.17972" transform="rotate(4.96983 108.811 131.648)" fill="black"/>
<ellipse cx="108.811" cy="131.648" rx="3.45018" ry="4.17972" transform="rotate(4.96983 108.811 131.648)" fill="black"/>
<path d="M134.221 14.1577C134.13 12.4413 135.498 11 137.217 11H142.858C144.556 11 145.915 12.4081 145.856 14.1052L144.137 63.1052C144.08 64.7201 142.754 66 141.138 66H139.795C138.2 66 136.884 64.7511 136.8 63.1577L134.221 14.1577Z" stroke="black" stroke-width="2"/>
<path d="M32.6295 58.7016C31.4294 57.5072 31.4549 55.5568 32.6859 54.3942L35.6505 51.5945C36.8919 50.422 38.8602 50.5207 39.9781 51.8115L72.2813 89.111C73.3476 90.3423 73.2367 92.1994 72.0314 93.295L71.7157 93.5819C70.5328 94.6571 68.7146 94.616 67.5815 93.4883L32.6295 58.7016Z" stroke="black" stroke-width="2"/>
<path d="M267.865 157.242C262.039 163.998 249.732 165.595 241.335 158.353C232.938 151.111 233.74 139.706 239.566 132.95C245.392 126.195 253.768 125.986 262.165 133.228C270.562 140.47 273.69 150.487 267.865 157.242Z" fill="black"/>
<rect x="241.554" y="106.167" width="20.1634" height="6.49771" rx="2" transform="rotate(79.4165 241.554 106.167)" fill="black" stroke="black" stroke-width="2"/>
<rect x="270.367" y="107.399" width="21.2394" height="6.49771" rx="2" transform="rotate(109.121 270.367 107.399)" fill="black" stroke="black" stroke-width="2"/>
<rect x="291.055" y="123.704" width="21.3465" height="6.49771" rx="2" transform="rotate(139.649 291.055 123.704)" fill="black" stroke="black" stroke-width="2"/>
<path d="M87.6 198.527C96.2008 207.128 98.1759 222.984 88.8777 232.282C79.5795 241.58 65.0098 238.483 56.409 229.882C47.8082 221.282 47.5866 210.65 56.8848 201.352C66.183 192.054 78.9992 189.926 87.6 198.527Z" fill="black"/>
<rect x="26.0543" y="227.547" width="19.7347" height="6.33332" rx="2" transform="rotate(-6.35753 26.0543 227.547)" stroke="black" stroke-width="2"/>
<rect x="54.3619" y="171.531" width="19.7347" height="6.33332" rx="2" transform="rotate(63.2041 54.3619 171.531)" stroke="black" stroke-width="2"/>
<rect x="20.4469" y="204.164" width="24.1805" height="6.33332" rx="2" transform="rotate(13.7583 20.4469 204.164)" stroke="black" stroke-width="2"/>
<rect x="29.696" y="180.986" width="25.7069" height="6.33332" rx="2" transform="rotate(36.4542 29.696 180.986)" stroke="black" stroke-width="2"/>
<defs>
<filter id="filter0_f_76_521" x="36.6191" y="56.2572" width="185.381" height="161.846" filterUnits="userSpaceOnUse" color-interpolation-filters="sRGB">
<feFlood flood-opacity="0" result="BackgroundImageFix"/>
<feBlend mode="normal" in="SourceGraphic" in2="BackgroundImageFix" result="shape"/>
<feGaussianBlur stdDeviation="1" result="effect1_foregroundBlur_76_521"/>
</filter>
</defs>
</svg>
