<svg width="141" height="16" viewBox="0 0 141 16" fill="none" xmlns="http://www.w3.org/2000/svg">
<path d="M12.6293 0.454545V15H9.58949V2.95455H3.70881V15H0.669034V0.454545H12.6293ZM20.4293 15.2131C19.3119 15.2131 18.3507 14.9763 17.5458 14.5028C16.7456 14.0246 16.1301 13.3617 15.6992 12.5142C15.2731 11.6667 15.06 10.6913 15.06 9.58807C15.06 8.47064 15.2754 7.49053 15.7063 6.64773C16.1419 5.80019 16.7598 5.13968 17.56 4.66619C18.3602 4.18797 19.3119 3.94886 20.4151 3.94886C21.3668 3.94886 22.2002 4.12169 22.9151 4.46733C23.6301 4.81297 24.1959 5.2983 24.6126 5.9233C25.0292 6.5483 25.2589 7.2822 25.3015 8.125H22.4464C22.3659 7.58049 22.1528 7.14252 21.8072 6.81108C21.4663 6.47491 21.0188 6.30682 20.4648 6.30682C19.9961 6.30682 19.5865 6.43466 19.2362 6.69034C18.8905 6.94129 18.6206 7.30824 18.4265 7.79119C18.2324 8.27415 18.1353 8.8589 18.1353 9.54545C18.1353 10.2415 18.23 10.8333 18.4194 11.321C18.6135 11.8087 18.8858 12.1804 19.2362 12.4361C19.5865 12.6918 19.9961 12.8196 20.4648 12.8196C20.8105 12.8196 21.1206 12.7486 21.3952 12.6065C21.6746 12.4645 21.9042 12.2585 22.0842 11.9886C22.2688 11.714 22.3896 11.3849 22.4464 11.0014H25.3015C25.2541 11.8348 25.0269 12.5687 24.6197 13.2031C24.2172 13.8329 23.6609 14.3253 22.9506 14.6804C22.2404 15.0355 21.4 15.2131 20.4293 15.2131ZM30.1293 11.0085L34.0568 4.09091H37.0398V15H34.1562V8.06108L30.2429 15H27.2386V4.09091H30.1293V11.0085ZM41.9936 4.09091L43.9964 7.90483L46.049 4.09091H49.1527L45.9922 9.54545L49.2379 15H46.1484L43.9964 11.2287L41.88 15H38.755L41.9936 9.54545L38.8686 4.09091H41.9936ZM55.4879 15.2131C54.3847 15.2131 53.4306 14.9787 52.6257 14.5099C51.8255 14.0365 51.2076 13.3783 50.772 12.5355C50.3364 11.688 50.1186 10.7055 50.1186 9.58807C50.1186 8.46117 50.3364 7.47633 50.772 6.63352C51.2076 5.78598 51.8255 5.12784 52.6257 4.65909C53.4306 4.18561 54.3847 3.94886 55.4879 3.94886C56.5911 3.94886 57.5429 4.18561 58.343 4.65909C59.148 5.12784 59.7682 5.78598 60.2038 6.63352C60.6394 7.47633 60.8572 8.46117 60.8572 9.58807C60.8572 10.7055 60.6394 11.688 60.2038 12.5355C59.7682 13.3783 59.148 14.0365 58.343 14.5099C57.5429 14.9787 56.5911 15.2131 55.4879 15.2131ZM55.5021 12.8693C56.004 12.8693 56.4231 12.7273 56.7592 12.4432C57.0954 12.1544 57.3487 11.7614 57.5192 11.2642C57.6944 10.767 57.782 10.2012 57.782 9.56676C57.782 8.93229 57.6944 8.36648 57.5192 7.86932C57.3487 7.37216 57.0954 6.97917 56.7592 6.69034C56.4231 6.40151 56.004 6.2571 55.5021 6.2571C54.9955 6.2571 54.5694 6.40151 54.2237 6.69034C53.8828 6.97917 53.6248 7.37216 53.4496 7.86932C53.2791 8.36648 53.1939 8.93229 53.1939 9.56676C53.1939 10.2012 53.2791 10.767 53.4496 11.2642C53.6248 11.7614 53.8828 12.1544 54.2237 12.4432C54.5694 12.7273 54.9955 12.8693 55.5021 12.8693ZM62.1854 15V13.4375H62.5831C62.9098 13.4375 63.1821 13.3736 63.3999 13.2457C63.6177 13.1132 63.7929 12.8835 63.9254 12.5568C64.0627 12.2254 64.1669 11.7661 64.2379 11.179C64.3137 10.5871 64.3681 9.83428 64.4013 8.92045L64.6001 4.09091H71.8729V15H70.1967V5.65341H66.1911L66.0206 9.54545C65.9827 10.4403 65.9022 11.2287 65.7791 11.9105C65.6607 12.5876 65.4785 13.1558 65.2322 13.6151C64.9908 14.0743 64.6688 14.42 64.2663 14.652C63.8639 14.884 63.3596 15 62.7536 15H62.1854ZM79.38 15.2273C78.3951 15.2273 77.531 14.9929 76.7876 14.5241C76.049 14.0554 75.4714 13.3996 75.0547 12.5568C74.6428 11.714 74.4368 10.7292 74.4368 9.60227C74.4368 8.46591 74.6428 7.47396 75.0547 6.62642C75.4714 5.77888 76.049 5.12074 76.7876 4.65199C77.531 4.18324 78.3951 3.94886 79.38 3.94886C80.3648 3.94886 81.2266 4.18324 81.9652 4.65199C82.7086 5.12074 83.2862 5.77888 83.6982 6.62642C84.1148 7.47396 84.3232 8.46591 84.3232 9.60227C84.3232 10.7292 84.1148 11.714 83.6982 12.5568C83.2862 13.3996 82.7086 14.0554 81.9652 14.5241C81.2266 14.9929 80.3648 15.2273 79.38 15.2273ZM79.38 13.7216C80.1281 13.7216 80.7436 13.5298 81.2266 13.1463C81.7095 12.7628 82.067 12.2585 82.299 11.6335C82.531 11.0085 82.647 10.3314 82.647 9.60227C82.647 8.87311 82.531 8.19366 82.299 7.56392C82.067 6.93419 81.7095 6.42519 81.2266 6.03693C80.7436 5.64867 80.1281 5.45455 79.38 5.45455C78.6319 5.45455 78.0163 5.64867 77.5334 6.03693C77.0504 6.42519 76.6929 6.93419 76.4609 7.56392C76.2289 8.19366 76.1129 8.87311 76.1129 9.60227C76.1129 10.3314 76.2289 11.0085 76.4609 11.6335C76.6929 12.2585 77.0504 12.7628 77.5334 13.1463C78.0163 13.5298 78.6319 13.7216 79.38 13.7216ZM93.6147 4.09091V5.65341H88.5579V15H86.8817V4.09091H93.6147ZM97.7376 12.5284L102.993 4.09091H104.925V15H103.249V6.5625L98.0217 15H96.0614V4.09091H97.7376V12.5284ZM116.404 4.09091V15H114.728V4.09091H116.404ZM115.751 9.28977V10.8523C115.372 10.9943 114.996 11.1198 114.621 11.2287C114.247 11.3329 113.854 11.4157 113.442 11.4773C113.031 11.5341 112.578 11.5625 112.086 11.5625C110.85 11.5625 109.858 11.2287 109.11 10.5611C108.367 9.89347 107.995 8.89205 107.995 7.55682V4.0625H109.671V7.55682C109.671 8.11553 109.778 8.57481 109.991 8.93466C110.204 9.29451 110.493 9.56203 110.857 9.73722C111.222 9.91241 111.631 10 112.086 10C112.796 10 113.438 9.93608 114.011 9.80824C114.588 9.67566 115.168 9.50284 115.751 9.28977ZM126.781 8.77841V10.3409H120.758V8.77841H126.781ZM121.156 4.09091V15H119.479V4.09091H121.156ZM128.059 4.09091V15H126.383V4.09091H128.059ZM135.552 15.2273C134.567 15.2273 133.703 14.9929 132.96 14.5241C132.221 14.0554 131.643 13.3996 131.227 12.5568C130.815 11.714 130.609 10.7292 130.609 9.60227C130.609 8.46591 130.815 7.47396 131.227 6.62642C131.643 5.77888 132.221 5.12074 132.96 4.65199C133.703 4.18324 134.567 3.94886 135.552 3.94886C136.537 3.94886 137.398 4.18324 138.137 4.65199C138.88 5.12074 139.458 5.77888 139.87 6.62642C140.287 7.47396 140.495 8.46591 140.495 9.60227C140.495 10.7292 140.287 11.714 139.87 12.5568C139.458 13.3996 138.88 14.0554 138.137 14.5241C137.398 14.9929 136.537 15.2273 135.552 15.2273ZM135.552 13.7216C136.3 13.7216 136.915 13.5298 137.398 13.1463C137.881 12.7628 138.239 12.2585 138.471 11.6335C138.703 11.0085 138.819 10.3314 138.819 9.60227C138.819 8.87311 138.703 8.19366 138.471 7.56392C138.239 6.93419 137.881 6.42519 137.398 6.03693C136.915 5.64867 136.3 5.45455 135.552 5.45455C134.804 5.45455 134.188 5.64867 133.705 6.03693C133.222 6.42519 132.865 6.93419 132.633 7.56392C132.401 8.19366 132.285 8.87311 132.285 9.60227C132.285 10.3314 132.401 11.0085 132.633 11.6335C132.865 12.2585 133.222 12.7628 133.705 13.1463C134.188 13.5298 134.804 13.7216 135.552 13.7216Z" fill="#5C41FD"/>
</svg>
