<svg width="142" height="15" viewBox="0 0 142 15" fill="none" xmlns="http://www.w3.org/2000/svg">
<path d="M11.5668 0.909091V14H8.44744V3.44034H3.58949V14H0.470171V0.909091H11.5668ZM25.9009 5.65199H22.7049C22.6623 5.32386 22.5749 5.0277 22.4428 4.76349C22.3107 4.49929 22.136 4.27344 21.9187 4.08594C21.7013 3.89844 21.4435 3.75568 21.1452 3.65767C20.8512 3.5554 20.5252 3.50426 20.1673 3.50426C19.5323 3.50426 18.9847 3.6598 18.5245 3.97088C18.0685 4.28196 17.717 4.73153 17.4698 5.3196C17.2269 5.90767 17.1055 6.61932 17.1055 7.45455C17.1055 8.32386 17.229 9.05256 17.4762 9.64062C17.7276 10.2244 18.0792 10.6655 18.5309 10.9638C18.9869 11.2578 19.5259 11.4048 20.1481 11.4048C20.4975 11.4048 20.815 11.3601 21.1005 11.2706C21.3903 11.1811 21.6438 11.0511 21.8612 10.8807C22.0827 10.706 22.2639 10.495 22.4045 10.2479C22.5494 9.99645 22.6495 9.71307 22.7049 9.39773L25.9009 9.4169C25.8455 9.99645 25.6772 10.5675 25.396 11.13C25.119 11.6925 24.7376 12.206 24.2518 12.6705C23.766 13.1307 23.1737 13.4972 22.4748 13.7699C21.7802 14.0426 20.9833 14.179 20.0842 14.179C18.8995 14.179 17.8384 13.919 16.9009 13.3991C15.9677 12.875 15.2305 12.1122 14.6893 11.1108C14.1481 10.1094 13.8775 8.89062 13.8775 7.45455C13.8775 6.0142 14.1523 4.79332 14.7021 3.7919C15.2518 2.79048 15.9954 2.02983 16.9329 1.50994C17.8704 0.990056 18.9208 0.730113 20.0842 0.730113C20.8768 0.730113 21.6097 0.840909 22.283 1.0625C22.9563 1.27983 23.5487 1.59943 24.06 2.02131C24.5714 2.43892 24.9869 2.95241 25.3065 3.56179C25.6261 4.17116 25.8242 4.8679 25.9009 5.65199ZM27.7115 0.909091H30.8691V8.4517H30.9778L36.1298 0.909091H38.8528V14H35.6887V6.4446H35.6056L30.3897 14H27.7115V0.909091ZM44.0447 0.909091L46.4354 5.04474H46.5376L48.9538 0.909091H52.495L48.5447 7.45455L52.6229 14H48.9922L46.5376 9.8196H46.4354L43.9808 14H40.3757L44.4347 7.45455L40.478 0.909091H44.0447ZM65.7489 7.45455C65.7489 8.89489 65.4719 10.1158 64.918 11.1172C64.364 12.1186 63.614 12.8793 62.668 13.3991C61.7262 13.919 60.6694 14.179 59.4975 14.179C58.3214 14.179 57.2624 13.9169 56.3207 13.3928C55.3789 12.8686 54.631 12.108 54.0771 11.1108C53.5273 10.1094 53.2525 8.89062 53.2525 7.45455C53.2525 6.0142 53.5273 4.79332 54.0771 3.7919C54.631 2.79048 55.3789 2.02983 56.3207 1.50994C57.2624 0.990056 58.3214 0.730113 59.4975 0.730113C60.6694 0.730113 61.7262 0.990056 62.668 1.50994C63.614 2.02983 64.364 2.79048 64.918 3.7919C65.4719 4.79332 65.7489 6.0142 65.7489 7.45455ZM62.5146 7.45455C62.5146 6.60227 62.3931 5.8821 62.1502 5.29403C61.9116 4.70597 61.5664 4.26065 61.1147 3.9581C60.6673 3.65554 60.1282 3.50426 59.4975 3.50426C58.8711 3.50426 58.332 3.65554 57.8803 3.9581C57.4286 4.26065 57.0813 4.70597 56.8384 5.29403C56.5998 5.8821 56.4805 6.60227 56.4805 7.45455C56.4805 8.30682 56.5998 9.02699 56.8384 9.61506C57.0813 10.2031 57.4286 10.6484 57.8803 10.951C58.332 11.2536 58.8711 11.4048 59.4975 11.4048C60.1282 11.4048 60.6673 11.2536 61.1147 10.951C61.5664 10.6484 61.9116 10.2031 62.1502 9.61506C62.3931 9.02699 62.5146 8.30682 62.5146 7.45455ZM67.0529 14V12.2869L67.4364 12.2741C67.9563 12.2614 68.3654 12.0845 68.6637 11.7436C68.9663 11.4027 69.1857 10.853 69.3221 10.0945C69.4627 9.33594 69.5565 8.32386 69.6033 7.05824L69.8271 0.909091H78.1048V14H76.1552V2.58381H71.6871L71.4826 7.58239C71.4272 8.98437 71.2866 10.1626 71.0607 11.1172C70.8349 12.0675 70.4513 12.7855 69.9102 13.2713C69.3732 13.7571 68.6083 14 67.6154 14H67.0529ZM92.3526 7.45455C92.3526 8.85227 92.0969 10.054 91.5856 11.0597C91.0742 12.0611 90.3732 12.8324 89.4826 13.3736C88.5962 13.9105 87.5884 14.179 86.4592 14.179C85.3256 14.179 84.3136 13.9105 83.4229 13.3736C82.5366 12.8324 81.8377 12.0589 81.3263 11.0533C80.815 10.0476 80.5593 8.84801 80.5593 7.45455C80.5593 6.05682 80.815 4.85724 81.3263 3.85582C81.8377 2.85014 82.5366 2.07883 83.4229 1.5419C84.3136 1.00071 85.3256 0.730113 86.4592 0.730113C87.5884 0.730113 88.5962 1.00071 89.4826 1.5419C90.3732 2.07883 91.0742 2.85014 91.5856 3.85582C92.0969 4.85724 92.3526 6.05682 92.3526 7.45455ZM90.3967 7.45455C90.3967 6.3892 90.2241 5.49219 89.8789 4.76349C89.538 4.03054 89.0692 3.47656 88.4727 3.10156C87.8803 2.7223 87.2092 2.53267 86.4592 2.53267C85.7049 2.53267 85.0316 2.7223 84.4393 3.10156C83.8469 3.47656 83.3782 4.03054 83.033 4.76349C82.6921 5.49219 82.5217 6.3892 82.5217 7.45455C82.5217 8.51989 82.6921 9.41903 83.033 10.152C83.3782 10.8807 83.8469 11.4347 84.4393 11.8139C85.0316 12.1889 85.7049 12.3764 86.4592 12.3764C87.2092 12.3764 87.8803 12.1889 88.4727 11.8139C89.0692 11.4347 89.538 10.8807 89.8789 10.152C90.2241 9.41903 90.3967 8.51989 90.3967 7.45455ZM102.978 0.909091V2.60938H96.7903V14H94.8152V0.909091H102.978ZM105.204 0.909091H107.16V10.5227H107.281L113.942 0.909091H115.77V14H113.795V4.39915H113.673L107.026 14H105.204V0.909091ZM126.417 14L122.02 8.1321H120.626V14H118.651V0.909091H120.626V6.43821H121.272L126.219 0.909091H128.629L123.394 6.7706L128.827 14H126.417ZM131.763 14H129.666L134.377 0.909091H136.659L141.37 14H139.273L135.572 3.28693H135.47L131.763 14ZM132.114 8.87358H138.915V10.5355H132.114V8.87358Z" fill="#5C41FD"/>
</svg>
