<svg width="15" height="11" viewBox="0 0 15 11" fill="none" xmlns="http://www.w3.org/2000/svg">
<path fill-rule="evenodd" clip-rule="evenodd" d="M4.23789 10.2501L3.56144 9.91853C2.70419 9.4984 1.9689 8.86561 1.42573 8.08053L1.31681 7.9231C0.915222 7.34266 0.61368 6.69907 0.424693 6.01902L0.394183 5.90924C0.224693 5.29935 0.1387 4.66985 0.1387 4.03649L0.1387 0.764731L2.82415 0.764731L2.82415 4.03649C2.82415 4.42648 2.87706 4.8141 2.98158 5.19019L3.01209 5.29998C3.12079 5.69113 3.29423 6.06131 3.52522 6.39517L3.63414 6.5526C3.91622 6.96031 4.29807 7.28893 4.74326 7.50711L5.41971 7.83864C5.3721 7.81531 5.31979 7.80318 5.26677 7.80318L5.26677 10.4886C4.9101 10.4886 4.55816 10.407 4.23789 10.2501Z" fill="white"/>
<path d="M5.25241 10.4888V0.723535H7.96075V4.51266H8.72366L11.3811 0.723535H14.5599L11.1078 5.56802L14.5981 10.4888H11.3811L8.9716 7.02391H7.96075V10.4888H5.25241Z" fill="white"/>
</svg>
