<svg width="17" height="12" viewBox="0 0 17 12" fill="none" xmlns="http://www.w3.org/2000/svg">
<path fill-rule="evenodd" clip-rule="evenodd" d="M4.71802 11.2221L3.96234 10.8517C3.00468 10.3824 2.18326 9.67548 1.57647 8.79844L1.45479 8.62257C1.00616 7.97415 0.669302 7.25517 0.458179 6.49547L0.424096 6.37283C0.234753 5.6915 0.138687 4.98827 0.138687 4.28072L0.138687 0.625733L3.13869 0.625733L3.13869 4.28072C3.13869 4.71639 3.1978 5.14942 3.31456 5.56956L3.34864 5.6922C3.47007 6.12917 3.66383 6.54271 3.92187 6.91567L4.04355 7.09154C4.35867 7.54701 4.78525 7.91412 5.28258 8.15786L6.03827 8.52822C5.98509 8.50215 5.92665 8.4886 5.86742 8.4886L5.86742 11.4886C5.46897 11.4886 5.07581 11.3974 4.71802 11.2221Z" fill="black"/>
<path d="M5.85138 11.4888V0.579712H8.87695V4.81267H9.72922L12.698 0.579712H16.2491L12.3926 5.99164L16.2917 11.4888H12.698L10.0062 7.61806H8.87695V11.4888H5.85138Z" fill="black"/>
</svg>
