<svg width="18" height="18" viewBox="0 0 18 18" fill="none" xmlns="http://www.w3.org/2000/svg">
<path fill-rule="evenodd" clip-rule="evenodd" d="M15.8003 0.92904L16.0693 0.793464L16.2307 0.763794L16.3778 0.793464L16.5714 0.903648L16.7113 1.01804L16.8082 1.14938L16.9014 1.28496L16.9624 1.42477L16.9982 1.53069V1.81879L16.9624 2.10689L16.8799 2.53904L16.7293 3.37792L16.5822 4.25916L16.4136 5.19973L16.2415 6.22079L16.1052 6.99611L15.951 7.88584L15.8111 8.71201L15.5924 9.90254L15.4166 10.9278L15.2588 11.8514L15.0149 13.2326L14.771 14.6858L14.5596 15.9852L14.4797 16.2565L14.3801 16.4408L14.2126 16.6226L14.0381 16.7223L13.8626 16.7638H13.6754H13.4998L13.3906 16.6809L11.3529 14.8985L9.50517 13.2964L7.86084 15.2079L7.45819 15.6687L7.35826 15.7389L7.26104 15.774H7.03405L6.86103 15.7389L6.75452 15.6393L6.61697 15.4664L6.52381 15.3091L6.36408 14.7587L5.11761 10.0696L4.28495 9.75371L1.44241 8.70842L1.2737 8.64665L1.14137 8.51903L1.07655 8.4297L1.02794 8.3627L0.99823 8.26699V8.14576V8.04685L1.02794 7.90648L1.06035 7.80757L1.12246 7.71186L1.20348 7.64167L1.2872 7.58425L5.85817 5.46011L15.8003 0.92904ZM10.0944 6.51585L13.8571 3.71315H13.9399H14.0371H14.1154L14.164 3.75881L14.1937 3.82581L14.1775 3.90238L14.1154 4.00447L7.26065 11.1894L7.214 11.2533L7.18867 11.3687L6.96286 14.2239L6.92619 14.2903L6.88028 14.319L6.79656 14.2903L6.74255 14.118L5.7183 10.0824L5.69467 9.9386L5.7183 9.83012L5.77839 9.74398L10.0944 6.51585Z" fill="black"/>
<path d="M16.0693 0.793464L16.0241 0.547584L15.9888 0.55407L15.9568 0.570217L16.0693 0.793464ZM15.8003 0.92904L15.9041 1.1567L15.9129 1.15229L15.8003 0.92904ZM16.2307 0.763794L16.2802 0.518733L16.2329 0.5092L16.1855 0.517914L16.2307 0.763794ZM16.3778 0.793464L16.5014 0.576171L16.4665 0.556336L16.4272 0.548403L16.3778 0.793464ZM16.5714 0.903648L16.7297 0.710123L16.7134 0.696779L16.6951 0.686355L16.5714 0.903648ZM16.7113 1.01804L16.9125 0.869683L16.8939 0.844401L16.8696 0.824516L16.7113 1.01804ZM16.8082 1.14938L17.0143 1.00763L17.0094 1.00102L16.8082 1.14938ZM16.9014 1.28496L17.1306 1.18503L17.121 1.16305L17.1074 1.14329L16.9014 1.28496ZM16.9624 1.42477L17.1992 1.34458L17.1958 1.33455L17.1915 1.32484L16.9624 1.42477ZM16.9982 1.53069H17.2482V1.48951L17.235 1.4505L16.9982 1.53069ZM16.9982 1.81879L17.2463 1.84968L17.2482 1.83429V1.81879H16.9982ZM16.9624 2.10689L17.2079 2.15376L17.2095 2.14581L17.2105 2.13778L16.9624 2.10689ZM16.8799 2.53904L16.6343 2.49216L16.6338 2.49486L16.8799 2.53904ZM16.7293 3.37792L16.4832 3.33373L16.4827 3.33677L16.7293 3.37792ZM16.5822 4.25916L16.8283 4.30327L16.8288 4.30031L16.5822 4.25916ZM16.4136 5.19973L16.1676 5.15562L16.1671 5.15816L16.4136 5.19973ZM16.2415 6.22079L16.4877 6.26407L16.488 6.26235L16.2415 6.22079ZM16.1052 6.99611L15.859 6.95283L15.8589 6.95342L16.1052 6.99611ZM15.951 7.88584L15.7047 7.84314L15.7045 7.8441L15.951 7.88584ZM15.8111 8.71201L16.057 8.75719L16.0576 8.75374L15.8111 8.71201ZM15.5924 9.90254L15.3465 9.85735L15.3459 9.86029L15.5924 9.90254ZM15.4166 10.9278L15.1702 10.8856L15.1701 10.8857L15.4166 10.9278ZM15.2588 11.8514L15.505 11.8949L15.5052 11.8935L15.2588 11.8514ZM15.0149 13.2326L14.7687 13.1892L14.7683 13.1913L15.0149 13.2326ZM14.771 14.6858L14.5244 14.6445L14.5242 14.6457L14.771 14.6858ZM14.5596 15.9852L14.7995 16.0558L14.8039 16.0408L14.8064 16.0253L14.5596 15.9852ZM14.4797 16.2565L14.6996 16.3755L14.7121 16.3523L14.7195 16.3271L14.4797 16.2565ZM14.3801 16.4408L14.564 16.6101L14.5851 16.5872L14.5999 16.5597L14.3801 16.4408ZM14.2126 16.6226L14.3366 16.8397L14.3703 16.8205L14.3965 16.792L14.2126 16.6226ZM14.0381 16.7223L14.0956 16.9656L14.1307 16.9573L14.1621 16.9394L14.0381 16.7223ZM13.8626 16.7638V17.0138H13.8917L13.9201 17.0071L13.8626 16.7638ZM13.4998 16.7638L13.3486 16.9629L13.4157 17.0138H13.4998V16.7638ZM13.3906 16.6809L13.2261 16.869L13.2326 16.8747L13.2394 16.8799L13.3906 16.6809ZM11.3529 14.8985L11.5175 14.7103L11.5167 14.7096L11.3529 14.8985ZM9.50517 13.2964L9.66895 13.1075L9.47932 12.9431L9.31565 13.1334L9.50517 13.2964ZM7.86084 15.2079L8.04911 15.3724L8.05036 15.3709L7.86084 15.2079ZM7.45819 15.6687L7.60188 15.8733L7.62658 15.8559L7.64644 15.8332L7.45819 15.6687ZM7.35826 15.7389L7.44314 15.974L7.47459 15.9627L7.50196 15.9435L7.35826 15.7389ZM7.26104 15.774V16.024H7.30477L7.34592 16.0091L7.26104 15.774ZM7.03405 15.774L6.98435 16.019L7.00895 16.024H7.03405V15.774ZM6.86103 15.7389L6.69032 15.9215L6.742 15.9698L6.81133 15.9839L6.86103 15.7389ZM6.75452 15.6393L6.55885 15.7949L6.57033 15.8094L6.58382 15.822L6.75452 15.6393ZM6.61697 15.4664L6.40189 15.5938L6.41063 15.6085L6.4213 15.622L6.61697 15.4664ZM6.52381 15.3091L6.28372 15.3788L6.29256 15.4092L6.30872 15.4365L6.52381 15.3091ZM6.36408 14.7587L6.12241 14.8229L6.12399 14.8284L6.36408 14.7587ZM5.11761 10.0696L5.35922 10.0054L5.32625 9.88137L5.20629 9.83586L5.11761 10.0696ZM4.28495 9.75371L4.37364 9.51996L4.37124 9.51907L4.28495 9.75371ZM1.44241 8.70842L1.52869 8.47378L1.52837 8.47366L1.44241 8.70842ZM1.2737 8.64665L1.10016 8.8266L1.13816 8.86325L1.18774 8.8814L1.2737 8.64665ZM1.14137 8.51903L0.939019 8.66585L0.951962 8.68369L0.967827 8.69899L1.14137 8.51903ZM1.07655 8.4297L0.874202 8.57652L0.874203 8.57652L1.07655 8.4297ZM1.02794 8.3627L0.789174 8.43681L0.80139 8.47617L0.82559 8.50952L1.02794 8.3627ZM0.99823 8.26699H0.74823V8.3049L0.759467 8.3411L0.99823 8.26699ZM0.99823 8.04685L0.753647 7.99509L0.74823 8.02069V8.04685H0.99823ZM1.02794 7.90648L0.790367 7.82863L0.786155 7.84148L0.783354 7.85472L1.02794 7.90648ZM1.06035 7.80757L0.850638 7.67148L0.832913 7.69879L0.822775 7.72973L1.06035 7.80757ZM1.12246 7.71186L0.958768 7.52291L0.93202 7.54608L0.912754 7.57576L1.12246 7.71186ZM1.20348 7.64167L1.06207 7.43551L1.05044 7.44349L1.03979 7.45272L1.20348 7.64167ZM1.2872 7.58425L1.18185 7.35753L1.16296 7.36631L1.14579 7.37809L1.2872 7.58425ZM5.85817 5.46011L5.75449 5.23262L5.75281 5.2334L5.85817 5.46011ZM13.8571 3.71315V3.46315H13.7742L13.7077 3.51266L13.8571 3.71315ZM10.0944 6.51585L9.9451 6.31536L9.94471 6.31565L10.0944 6.51585ZM14.1154 3.71315L14.2866 3.53093L14.2144 3.46315H14.1154V3.71315ZM14.164 3.75881L14.3926 3.65748L14.3721 3.61123L14.3352 3.57659L14.164 3.75881ZM14.1937 3.82581L14.4383 3.87757L14.4551 3.79843L14.4223 3.72447L14.1937 3.82581ZM14.1775 3.90238L14.3911 4.03232L14.4133 3.99588L14.4221 3.95414L14.1775 3.90238ZM14.1154 4.00447L14.2963 4.17704L14.315 4.1575L14.329 4.13442L14.1154 4.00447ZM7.26065 11.1894L7.07977 11.0168L7.06843 11.0287L7.05875 11.0419L7.26065 11.1894ZM7.214 11.2533L7.01209 11.1058L6.98107 11.1483L6.9698 11.1997L7.214 11.2533ZM7.18867 11.3687L6.94447 11.3152L6.9408 11.3319L6.93944 11.349L7.18867 11.3687ZM6.96286 14.2239L7.18172 14.3447L7.20783 14.2974L7.21208 14.2436L6.96286 14.2239ZM6.92619 14.2903L7.05875 14.5022L7.11372 14.4679L7.14505 14.4111L6.92619 14.2903ZM6.88028 14.319L6.79918 14.5555L6.91185 14.5941L7.01284 14.531L6.88028 14.319ZM6.79656 14.2903L6.55801 14.3651L6.59584 14.4857L6.71546 14.5268L6.79656 14.2903ZM6.74255 14.118L6.49986 14.1796L6.504 14.1928L6.74255 14.118ZM5.7183 10.0824L5.47161 10.1229L5.47335 10.1335L5.47599 10.1439L5.7183 10.0824ZM5.69467 9.9386L5.4504 9.88538L5.44024 9.93203L5.44798 9.97913L5.69467 9.9386ZM5.7183 9.83012L5.51326 9.68709L5.48467 9.72808L5.47403 9.77691L5.7183 9.83012ZM5.77839 9.74398L5.62866 9.54378L5.5964 9.56791L5.57335 9.60095L5.77839 9.74398ZM15.9568 0.570217L15.6878 0.705793L15.9129 1.15229L16.1819 1.01671L15.9568 0.570217ZM16.1855 0.517914L16.0241 0.547584L16.1145 1.03934L16.2759 1.00967L16.1855 0.517914ZM16.4272 0.548403L16.2802 0.518733L16.1813 1.00886L16.3283 1.03853L16.4272 0.548403ZM16.6951 0.686355L16.5014 0.576171L16.2542 1.01076L16.4478 1.12094L16.6951 0.686355ZM16.8696 0.824516L16.7297 0.710123L16.4132 1.09717L16.5531 1.21156L16.8696 0.824516ZM17.0094 1.00102L16.9125 0.869683L16.5101 1.1664L16.6069 1.29774L17.0094 1.00102ZM17.1074 1.14329L17.0141 1.00771L16.6022 1.29105L16.6954 1.42663L17.1074 1.14329ZM17.1915 1.32484L17.1306 1.18503L16.6722 1.38488L16.7332 1.5247L17.1915 1.32484ZM17.235 1.4505L17.1992 1.34458L16.7256 1.50496L16.7615 1.61088L17.235 1.4505ZM17.2482 1.81879V1.53069H16.7482V1.81879H17.2482ZM17.2105 2.13778L17.2463 1.84968L16.7502 1.7879L16.7143 2.076L17.2105 2.13778ZM17.1255 2.58591L17.2079 2.15376L16.7168 2.06002L16.6343 2.49217L17.1255 2.58591ZM16.9753 3.4221L17.126 2.58322L16.6338 2.49486L16.4832 3.33374L16.9753 3.4221ZM16.8288 4.30031L16.9758 3.41907L16.4827 3.33677L16.3356 4.21802L16.8288 4.30031ZM16.6597 5.24383L16.8283 4.30326L16.3361 4.21506L16.1676 5.15563L16.6597 5.24383ZM16.488 6.26235L16.6602 5.24129L16.1671 5.15816L15.995 6.17922L16.488 6.26235ZM16.3514 7.0394L16.4877 6.26407L15.9953 6.1775L15.859 6.95283L16.3514 7.0394ZM16.1973 7.92853L16.3515 7.03881L15.8589 6.95342L15.7047 7.84314L16.1973 7.92853ZM16.0576 8.75374L16.1975 7.92757L15.7045 7.8441L15.5646 8.67027L16.0576 8.75374ZM15.8382 9.94772L16.057 8.75719L15.5652 8.66682L15.3465 9.85735L15.8382 9.94772ZM15.663 10.9701L15.8388 9.94478L15.3459 9.86029L15.1702 10.8856L15.663 10.9701ZM15.5052 11.8935L15.663 10.9699L15.1701 10.8857L15.0124 11.8094L15.5052 11.8935ZM15.2611 13.2761L15.505 11.8949L15.0126 11.808L14.7687 13.1892L15.2611 13.2761ZM15.0175 14.7272L15.2614 13.274L14.7683 13.1913L14.5244 14.6445L15.0175 14.7272ZM14.8064 16.0253L15.0177 14.726L14.5242 14.6457L14.3129 15.945L14.8064 16.0253ZM14.7195 16.3271L14.7995 16.0558L14.3198 15.9145L14.2399 16.1859L14.7195 16.3271ZM14.5999 16.5597L14.6996 16.3755L14.2598 16.1376L14.1602 16.3218L14.5999 16.5597ZM14.3965 16.792L14.564 16.6101L14.1961 16.2714L14.0287 16.4533L14.3965 16.792ZM14.1621 16.9394L14.3366 16.8397L14.0886 16.4055L13.9141 16.5052L14.1621 16.9394ZM13.9201 17.0071L14.0956 16.9656L13.9806 16.479L13.8051 16.5205L13.9201 17.0071ZM13.6754 17.0138H13.8626V16.5138H13.6754V17.0138ZM13.4998 17.0138H13.6754V16.5138H13.4998V17.0138ZM13.2394 16.8799L13.3486 16.9629L13.651 16.5647L13.5418 16.4818L13.2394 16.8799ZM11.1883 15.0867L13.2261 16.869L13.5552 16.4927L11.5175 14.7103L11.1883 15.0867ZM9.3414 13.4853L11.1891 15.0874L11.5167 14.7096L9.66895 13.1075L9.3414 13.4853ZM8.05036 15.3709L9.6947 13.4594L9.31565 13.1334L7.67132 15.0448L8.05036 15.3709ZM7.64644 15.8332L8.0491 15.3724L7.67258 15.0434L7.26993 15.5042L7.64644 15.8332ZM7.50196 15.9435L7.60188 15.8733L7.31449 15.4641L7.21456 15.5343L7.50196 15.9435ZM7.34592 16.0091L7.44314 15.974L7.27338 15.5037L7.17616 15.5388L7.34592 16.0091ZM7.03405 16.024H7.26104V15.524H7.03405V16.024ZM6.81133 15.9839L6.98435 16.019L7.08374 15.529L6.91072 15.4939L6.81133 15.9839ZM6.58382 15.822L6.69032 15.9215L7.03174 15.5562L6.92523 15.4567L6.58382 15.822ZM6.4213 15.622L6.55885 15.7949L6.9502 15.4837L6.81265 15.3108L6.4213 15.622ZM6.30872 15.4365L6.40189 15.5938L6.83206 15.3389L6.7389 15.1817L6.30872 15.4365ZM6.12399 14.8284L6.28372 15.3788L6.76391 15.2394L6.60417 14.689L6.12399 14.8284ZM4.876 10.1338L6.12247 14.8229L6.60569 14.6945L5.35922 10.0054L4.876 10.1338ZM4.19628 9.98746L5.02893 10.3033L5.20629 9.83586L4.37363 9.51997L4.19628 9.98746ZM1.35612 8.94306L4.19867 9.98835L4.37124 9.51907L1.52869 8.47378L1.35612 8.94306ZM1.18774 8.8814L1.35645 8.94318L1.52837 8.47366L1.35966 8.41189L1.18774 8.8814ZM0.967827 8.69899L1.10016 8.8266L1.44724 8.46669L1.31491 8.33908L0.967827 8.69899ZM0.874203 8.57652L0.939019 8.66585L1.34371 8.37221L1.2789 8.28288L0.874203 8.57652ZM0.82559 8.50952L0.874202 8.57652L1.2789 8.28288L1.23028 8.21588L0.82559 8.50952ZM0.759467 8.3411L0.789174 8.43681L1.2667 8.28859L1.23699 8.19288L0.759467 8.3411ZM0.74823 8.14576V8.26699H1.24823V8.14576H0.74823ZM0.74823 8.04685V8.14576H1.24823V8.04685H0.74823ZM0.783354 7.85472L0.753647 7.99509L1.24281 8.09861L1.27252 7.95824L0.783354 7.85472ZM0.822775 7.72973L0.790367 7.82863L1.26551 7.98432L1.29792 7.88542L0.822775 7.72973ZM0.912754 7.57576L0.850638 7.67148L1.27005 7.94367L1.33217 7.84796L0.912754 7.57576ZM1.03979 7.45272L0.958768 7.52291L1.28616 7.90082L1.36718 7.83063L1.03979 7.45272ZM1.14579 7.37809L1.06207 7.43551L1.34489 7.84784L1.42862 7.79041L1.14579 7.37809ZM5.75281 5.2334L1.18185 7.35753L1.39256 7.81096L5.96352 5.68683L5.75281 5.2334ZM15.6967 0.701551L5.75449 5.23262L5.96184 5.6876L15.904 1.15653L15.6967 0.701551ZM13.7077 3.51266L9.9451 6.31536L10.2438 6.71634L14.0064 3.91364L13.7077 3.51266ZM13.9399 3.46315H13.8571V3.96315H13.9399V3.46315ZM14.0371 3.46315H13.9399V3.96315H14.0371V3.46315ZM14.1154 3.46315H14.0371V3.96315H14.1154V3.46315ZM14.3352 3.57659L14.2866 3.53093L13.9443 3.89537L13.9929 3.94103L14.3352 3.57659ZM14.4223 3.72447L14.3926 3.65748L13.9355 3.86015L13.9652 3.92715L14.4223 3.72447ZM14.4221 3.95414L14.4383 3.87757L13.9492 3.77405L13.933 3.85062L14.4221 3.95414ZM14.329 4.13442L14.3911 4.03232L13.964 3.77243L13.9019 3.87453L14.329 4.13442ZM7.44154 11.3619L14.2963 4.17704L13.9345 3.8319L7.07977 11.0168L7.44154 11.3619ZM7.4159 11.4007L7.46256 11.3368L7.05875 11.0419L7.01209 11.1058L7.4159 11.4007ZM7.43286 11.4223L7.45819 11.3068L6.9698 11.1997L6.94447 11.3152L7.43286 11.4223ZM7.21208 14.2436L7.43789 11.3884L6.93944 11.349L6.71364 14.2042L7.21208 14.2436ZM7.14505 14.4111L7.18172 14.3447L6.74401 14.103L6.70734 14.1694L7.14505 14.4111ZM7.01284 14.531L7.05875 14.5022L6.79363 14.0783L6.74772 14.107L7.01284 14.531ZM6.71546 14.5268L6.79918 14.5555L6.96138 14.0825L6.87766 14.0538L6.71546 14.5268ZM6.504 14.1928L6.55801 14.3651L7.03511 14.2155L6.9811 14.0432L6.504 14.1928ZM5.47599 10.1439L6.50023 14.1795L6.98486 14.0565L5.96062 10.0209L5.47599 10.1439ZM5.44798 9.97913L5.47161 10.1229L5.96499 10.0419L5.94136 9.89806L5.44798 9.97913ZM5.47403 9.77691L5.4504 9.88538L5.93894 9.99181L5.96257 9.88334L5.47403 9.77691ZM5.57335 9.60095L5.51326 9.68709L5.92334 9.97315L5.98343 9.88701L5.57335 9.60095ZM9.94471 6.31565L5.62866 9.54378L5.92813 9.94418L10.2442 6.71605L9.94471 6.31565Z" fill="black"/>
</svg>
