<svg width="12" height="12" viewBox="0 0 12 12" fill="none" xmlns="http://www.w3.org/2000/svg">
<path fill-rule="evenodd" clip-rule="evenodd" d="M5.93042 0.625732C5.90613 3.58264 3.54443 5.99451 0.58313 6.07556L0.430664 6.07971V4.62573C0.430664 2.41663 2.22156 0.625732 4.43066 0.625732H5.93042ZM5.93237 0.625732C6.05737 3.59302 8.45703 5.99561 11.4307 6.07971C8.45117 6.13049 6.0343 8.50757 5.93384 11.4858L5.93066 11.5797C5.93066 8.57788 3.52344 6.13074 0.522095 6.08118L0.430664 6.07971V7.62573C0.430664 9.83484 2.22156 11.6257 4.43066 11.6257H7.43066C9.63977 11.6257 11.4307 9.83484 11.4307 7.62573V6.07971V4.62573C11.4307 2.41663 9.63977 0.625732 7.43066 0.625732H5.93237Z" fill="black"/>
</svg>
