<svg width="17" height="17" viewBox="0 0 17 17" fill="none" xmlns="http://www.w3.org/2000/svg">
<path fill-rule="evenodd" clip-rule="evenodd" d="M4.81796 16.1953L4.06944 15.6521C3.12085 14.9638 2.30722 13.927 1.70617 12.6406L1.58565 12.3827C1.14127 11.4317 0.807601 10.3772 0.598478 9.26296L0.564718 9.08308C0.377169 8.0838 0.282013 7.05239 0.282013 6.01466L0.282013 0.654007L3.25359 0.654007L3.25359 6.01466C3.25359 6.65364 3.31214 7.28874 3.42779 7.90495L3.46155 8.08483C3.58184 8.72571 3.77376 9.33224 4.02935 9.87925L4.14988 10.1372C4.46202 10.8052 4.88456 11.3436 5.37718 11.7011L6.1257 12.2443C6.07302 12.2061 6.01514 12.1862 5.95647 12.1862L5.95647 16.5862C5.5618 16.5862 5.17236 16.4525 4.81796 16.1953Z" fill="black"/>
<path d="M5.94058 16.5868V0.586773H8.93749V6.79511H9.78168L12.7223 0.586773H16.2398L12.4198 8.52427L16.282 16.5868H12.7223L10.056 10.9097H8.93749V16.5868H5.94058Z" fill="black"/>
</svg>
